<?xml version="1.0" encoding="UTF-8"?>
<svg id="icon" data-name="icon" xmlns="http://www.w3.org/2000/svg" viewBox="-111.815 -154.4 1006.87 1006.87">
  <defs>
    <style>
      .cls-1 {
        fill: #fc86a8;
      }

      .cls-2 {
        fill: #ef6288;
      }

      .cls-3 {
        fill: #fdfcfc;
      }

      .cls-4 {
        fill: #fdc9d8;
      }

      .cls-5 {
        fill: #f25f87;
      }
    </style>
  </defs>
  <path class="cls-1" d="M780.45,247c-25.63,82.85-85.1,147.6-158.53,193.98-94.84,59.9-200.28,91.42-309.82,113.11-46.44,9.19-92.22,16.03-138.99,23.03l-82.11,12.3c-48.11-69.68-66.78-155.53-54.76-238.99,14.64-101.66,73.55-188.69,161.98-240.73,88.22-51.91,185.09-67.63,286.74-72.76,49.19-2.48,97.12-5.24,145.89-11.08,36.85-4.41,71.6-12.29,106.21-24.75,12.91-4.65,24.46,5.99,27.64,18.39,19.1,74.39,21.6,151.37,15.74,227.5h.01ZM549.98,298.64l112.19.61c10.75-.01,18.26-10.22,18.38-19.84.11-8.92-7.04-20.26-17.79-20.29l-112.58.23c-6.59-11.18-19.1-18.39-31.74-18.54-13.45-.16-25.2,6.55-32.57,17.97l-310.73.08c-11.52,0-19.33,9.47-19.62,19.67s7.16,20.8,18.63,20.8l312.08.07c7.38,11.59,19.67,17.67,33.02,17.23,12.25-.4,23.94-6.87,30.74-17.99h-.01ZM498.13,407.69c11.55-2.03,18.05-10.65,17.53-21.3-.42-8.72-7.44-18.99-18.07-18.99H154.35c-10.85,0-18.15,10.74-18.18,20.05-.02,9.4,7.05,20.17,18.06,20.17l343.89.07h0Z"/>
  <path class="cls-5" d="M755.26,393c-116.55,146.83-284.69,200.84-466.19,218.99l-95.59,9.56c66.14,45,140.21,63.79,216.48,74.59-29.66,3.12-58.97,3.22-89.45-.94-65.86-9-129.61-31.38-187.16-64.32-30.74,7.88-53.98,28.06-73.07,52.13-10.77,13.58-29.33,17.69-43.48,9.65-14.87-8.44-20.64-26-14.19-42.23,12.68-31.87,56.71-56.26,88.38-61.01l82.11-12.3c46.77-7.01,92.55-13.84,138.99-23.03,109.54-21.68,214.98-53.2,309.82-113.11,73.44-46.38,132.91-111.13,158.53-193.98-3.8,49.37-11.43,98.35-25.19,145.99h.01Z"/>
  <path class="cls-4" d="M755.26,393c-12.11,41.94-28.43,83.34-50.78,121.2-43.67,73.96-109.89,129.48-190.61,158.8-33.72,12.25-68.56,19.43-103.91,23.15-76.27-10.8-150.35-29.6-216.48-74.59l95.59-9.56c181.5-18.15,349.64-72.16,466.19-218.99h0Z"/>
  <g>
    <path class="cls-3" d="M498.13,407.69l-343.89-.07c-11.01,0-18.08-10.77-18.06-20.17.02-9.31,7.33-20.04,18.18-20.04h343.24c10.63,0,17.65,10.26,18.07,18.98.51,10.65-5.98,19.28-17.53,21.3h0Z"/>
    <g>
      <path class="cls-3" d="M550.17,259.35c7.29,12.38,7.44,26.82-.19,39.29-6.8,11.12-18.49,17.59-30.74,17.99-13.35.44-25.64-5.65-33.02-17.23l-312.08-.07c-11.48,0-18.91-11.02-18.63-20.8s8.1-19.66,19.62-19.67l310.73-.08c7.38-11.42,19.12-18.13,32.57-17.97,12.64.15,25.15,7.36,31.74,18.54ZM543.45,278.82c0-14.17-11.48-25.65-25.65-25.65s-25.65,11.48-25.65,25.65,11.48,25.65,25.65,25.65,25.65-11.48,25.65-25.65Z"/>
      <path class="cls-4" d="M549.98,298.64c7.63-12.47,7.48-26.9.19-39.29l112.58-.23c10.75.03,17.9,11.36,17.79,20.29-.12,9.62-7.62,19.82-18.38,19.84l-112.19-.61h.01Z"/>
      <circle class="cls-2" cx="517.79" cy="278.82" r="25.65"/>
    </g>
  </g>
</svg>
