<?xml version="1.0" encoding="UTF-8"?>
<svg id="icon" data-name="icon" xmlns="http://www.w3.org/2000/svg" viewBox="0 0 1254 1254">
  <defs>
    <style>
      .cls-2 {
        fill: #def1d3;
      }

      .cls-3 {
        fill: #a4d382;
      }

      .cls-4 {
        fill: #60a65a;
      }

      .cls-5 {
        fill: #fcfcfc;
      }
    </style>
  </defs>
  <g>
    <path class="cls-3" d="M1012.64,517.41c-15.87,71.22-65.07,134.38-125.74,180.72-80.07,61.16-183.07,100.16-280.21,125.73-50.86,13.39-101.64,23.27-153.34,32.65l-128.14,23.25c-97.72-116.09-107.3-282.57-19.31-407.85,34.7-49.4,81.41-89.13,135.21-116.63,86.22-44.09,182.36-55.4,277.15-59.75,49.9-2.29,98.62-4.68,148.15-9.87,30.31-3.18,59.37-7.8,88.41-16.5,12.09-7.15,26.23-2.76,32.6,9.87,24.91,76.88,31.03,158.24,25.21,238.36ZM771.93,581.66l124.02.38c11.37-.02,19.18-10.44,19.53-20.39.36-10.09-7.1-21.2-18.62-21.22l-123.66.34c-6.77-11.48-19.02-18.56-31.76-18.91-13.78-.39-25.45,6.2-33.25,17.69l-315.56.24c-11.34,0-18.27,12.66-17.96,21.83.34,10.06,7.96,20.48,19.59,20.49l315.32.11c7.44,10.98,19.18,16.55,31.86,16.28,11.87-.25,23.26-6.39,30.49-16.84ZM740.35,692.39c10.37-2.01,15.64-10.17,15.12-19.57-.43-7.79-7.18-16.64-16.59-16.64l-358.62-.02c-10.8,0-17.6,7.97-18.17,17.76-.47,8.11,5.98,18.43,16.12,18.43l362.15.04Z"/>
    <path class="cls-4" d="M1012.64,517.41c-3.78,52.06-10.28,103.82-24.9,154.03-108.43,141.16-255.85,197-427.64,221.87-41.93,6.07-83.59,9.31-126.59,15.91,72.56,46.99,158.02,60.18,241,68.31-108.02,17.16-206.75-14.68-304.13-59.69-28.2,9.26-49.58,28.54-66.55,52.13-11.29,15.7-28.9,23.6-46.46,14.28-16.39-8.7-22.87-28.73-14.15-46,6.88-13.62,17.13-24.29,29.59-33.38,16.1-11.56,33.9-19.56,52.4-25.1l128.14-23.25c51.7-9.38,102.48-19.26,153.34-32.65,97.14-25.57,200.14-64.58,280.21-125.73,60.67-46.34,109.87-109.51,125.74-180.72Z"/>
    <path class="cls-2" d="M674.5,977.54c-82.98-8.13-168.44-21.32-241-68.31,42.99-6.61,84.65-9.84,126.59-15.91,171.79-24.86,319.21-80.71,427.64-221.87-13.89,47.73-31.34,94.75-57.72,137.7-59.7,97.19-143.68,150.63-255.51,168.4Z"/>
    <path class="cls-5" d="M740.35,692.39l-362.15-.04c-10.14,0-16.59-10.32-16.12-18.43.57-9.79,7.37-17.76,18.17-17.76l358.62.02c9.42,0,16.16,8.86,16.59,16.64.52,9.4-4.75,17.56-15.12,19.57Z"/>
    <g>
      <path class="cls-5" d="M773.2,540.78c7.44,12.6,7.23,28.6-1.26,40.89-7.22,10.45-18.62,16.59-30.49,16.84-12.68.27-24.42-5.3-31.86-16.28l-315.32-.11c-11.63,0-19.25-10.43-19.59-20.49-.31-9.17,6.61-21.82,17.96-21.83l315.56-.24c7.81-11.49,19.48-18.08,33.25-17.69,12.74.36,24.99,7.44,31.76,18.91ZM765.07,559.8c0-13.66-11.07-24.73-24.73-24.73s-24.73,11.07-24.73,24.73,11.07,24.73,24.73,24.73,24.73-11.07,24.73-24.73Z"/>
      <path class="cls-2" d="M771.93,581.66c8.5-12.29,8.7-28.29,1.26-40.89l123.66-.34c11.52.02,18.98,11.13,18.62,21.22-.35,9.95-8.16,20.37-19.53,20.39l-124.02-.38Z"/>
      <circle class="cls-4" cx="740.34" cy="559.8" r="24.73"/>
    </g>
  </g>
</svg>
